<mxfile host="app.diagrams.net" agent="Mozilla/5.0 (X11; Ubuntu; Linux x86_64; rv:132.0) Gecko/20100101 Firefox/132.0" version="25.0.1">
  <diagram name="Page-1" id="-c3lFSAIwQcH0rRA0kI-">
    <mxGraphModel dx="3906" dy="2365" grid="1" gridSize="10" guides="1" tooltips="1" connect="1" arrows="1" fold="1" page="1" pageScale="1" pageWidth="850" pageHeight="1100" background="none" math="0" shadow="0">
      <root>
        <mxCell id="0" />
        <mxCell id="1" parent="0" />
        <mxCell id="cRKpLyfgJ0npYCoTxtSO-49" style="edgeStyle=orthogonalEdgeStyle;rounded=0;orthogonalLoop=1;jettySize=auto;html=1;entryX=0;entryY=0.5;entryDx=0;entryDy=0;entryPerimeter=0;curved=0;startArrow=ERmany;startFill=0;sourcePerimeterSpacing=1;startSize=39;" parent="1" source="aBqmL__dgE8RmT_emZI3-3" target="cRKpLyfgJ0npYCoTxtSO-37" edge="1">
          <mxGeometry relative="1" as="geometry">
            <mxPoint x="880" y="-400" as="targetPoint" />
          </mxGeometry>
        </mxCell>
        <mxCell id="k8HhrDz8EL7ftPGTbXfE-105" style="edgeStyle=orthogonalEdgeStyle;rounded=0;orthogonalLoop=1;jettySize=auto;html=1;exitX=0;exitY=0.5;exitDx=0;exitDy=0;" parent="1" source="aBqmL__dgE8RmT_emZI3-3" edge="1">
          <mxGeometry relative="1" as="geometry">
            <mxPoint x="560" y="-400" as="targetPoint" />
          </mxGeometry>
        </mxCell>
        <mxCell id="aBqmL__dgE8RmT_emZI3-3" value="erogatore&lt;br&gt;ticket" style="whiteSpace=wrap;html=1;aspect=fixed;" parent="1" vertex="1">
          <mxGeometry x="680" y="-440" width="80" height="80" as="geometry" />
        </mxCell>
        <mxCell id="aBqmL__dgE8RmT_emZI3-5" value="utente" style="whiteSpace=wrap;html=1;aspect=fixed;" parent="1" vertex="1">
          <mxGeometry x="680" y="-200" width="80" height="80" as="geometry" />
        </mxCell>
        <mxCell id="aBqmL__dgE8RmT_emZI3-19" value="utente" style="whiteSpace=wrap;html=1;aspect=fixed;" parent="1" vertex="1">
          <mxGeometry x="690" y="-190" width="80" height="80" as="geometry" />
        </mxCell>
        <mxCell id="aBqmL__dgE8RmT_emZI3-20" value="utente" style="whiteSpace=wrap;html=1;aspect=fixed;" parent="1" vertex="1">
          <mxGeometry x="700" y="-180" width="80" height="80" as="geometry" />
        </mxCell>
        <mxCell id="cRKpLyfgJ0npYCoTxtSO-55" style="edgeStyle=orthogonalEdgeStyle;rounded=0;orthogonalLoop=1;jettySize=auto;html=1;entryX=0.5;entryY=0;entryDx=0;entryDy=0;endArrow=baseDash;endFill=0;" parent="1" source="aBqmL__dgE8RmT_emZI3-21" target="cRKpLyfgJ0npYCoTxtSO-56" edge="1">
          <mxGeometry relative="1" as="geometry">
            <mxPoint x="750" y="60" as="targetPoint" />
          </mxGeometry>
        </mxCell>
        <mxCell id="cRKpLyfgJ0npYCoTxtSO-58" style="edgeStyle=orthogonalEdgeStyle;rounded=0;orthogonalLoop=1;jettySize=auto;html=1;exitX=1;exitY=0.5;exitDx=0;exitDy=0;entryX=0.5;entryY=1;entryDx=0;entryDy=0;" parent="1" source="aBqmL__dgE8RmT_emZI3-21" target="cRKpLyfgJ0npYCoTxtSO-47" edge="1">
          <mxGeometry relative="1" as="geometry">
            <mxPoint x="1400" y="730" as="targetPoint" />
          </mxGeometry>
        </mxCell>
        <mxCell id="k8HhrDz8EL7ftPGTbXfE-92" style="edgeStyle=orthogonalEdgeStyle;rounded=0;orthogonalLoop=1;jettySize=auto;html=1;exitX=1;exitY=0.75;exitDx=0;exitDy=0;entryX=1;entryY=0.5;entryDx=0;entryDy=0;entryPerimeter=0;endArrow=baseDash;endFill=0;" parent="1" source="aBqmL__dgE8RmT_emZI3-21" target="k8HhrDz8EL7ftPGTbXfE-46" edge="1">
          <mxGeometry relative="1" as="geometry">
            <mxPoint x="1440" y="680" as="targetPoint" />
          </mxGeometry>
        </mxCell>
        <mxCell id="aBqmL__dgE8RmT_emZI3-21" value="utente" style="whiteSpace=wrap;html=1;aspect=fixed;" parent="1" vertex="1">
          <mxGeometry x="710" y="-170" width="80" height="80" as="geometry" />
        </mxCell>
        <mxCell id="k8HhrDz8EL7ftPGTbXfE-107" style="edgeStyle=orthogonalEdgeStyle;rounded=0;orthogonalLoop=1;jettySize=auto;html=1;" parent="1" source="aBqmL__dgE8RmT_emZI3-23" edge="1">
          <mxGeometry relative="1" as="geometry">
            <mxPoint x="490" y="-400" as="targetPoint" />
          </mxGeometry>
        </mxCell>
        <mxCell id="aBqmL__dgE8RmT_emZI3-23" value="" style="rounded=0;whiteSpace=wrap;html=1;" parent="1" vertex="1">
          <mxGeometry x="-110" y="-440" width="480" height="80" as="geometry" />
        </mxCell>
        <mxCell id="aBqmL__dgE8RmT_emZI3-31" value="&lt;div align=&quot;left&quot;&gt;&lt;font style=&quot;font-size: 15px;&quot;&gt;• il numero di utenti serviti totali nella simulazione&lt;br&gt;• il numero di utenti serviti in media al giorno&lt;br&gt;• il numero di servizi erogati totali nella simulazione&lt;br&gt;• il numero di servizi non erogati totali nella simulazione&lt;br&gt;• il numero di servizi erogati in media al giorno&lt;br&gt;• il numero di servizi non erogati in media al giorno&lt;br&gt;• il tempo medio di attesa degli utenti nella simulazione&lt;br&gt;• il tempo medio di attesa degli utenti nella giornata&lt;br&gt;• il tempo medio di erogazione dei servizi nella simulazione&lt;br&gt;• il tempo medio di erogazione dei servizi nella giornata&lt;br&gt;• le statistiche precedenti suddivise per tipologia di servizio&lt;br&gt;• il numero di operatori attivi durante la giornata;&lt;br&gt;• il numero di operatori attivi durante la simulazione;&lt;br&gt;• il numero medio di pause effettuate nella giornata e il totale di pause effettuate durante la simulazione;&lt;br&gt;• il rapporto fra operatori disponibili e sportelli esistenti, per ogni sportello per ogni giornata.&lt;/font&gt;&lt;/div&gt;" style="rounded=1;whiteSpace=wrap;html=1;align=left;" parent="1" vertex="1">
          <mxGeometry x="-1010" y="390" width="610" height="370" as="geometry" />
        </mxCell>
        <mxCell id="aBqmL__dgE8RmT_emZI3-51" value="" style="endArrow=baseDash;html=1;rounded=0;endFill=0;" parent="1" edge="1">
          <mxGeometry width="50" height="50" relative="1" as="geometry">
            <mxPoint x="520" y="-150" as="sourcePoint" />
            <mxPoint x="680" y="-150" as="targetPoint" />
          </mxGeometry>
        </mxCell>
        <mxCell id="cRKpLyfgJ0npYCoTxtSO-28" value="&lt;b&gt;NOF_USERS&lt;/b&gt;" style="edgeLabel;html=1;align=center;verticalAlign=middle;resizable=0;points=[];" parent="aBqmL__dgE8RmT_emZI3-51" vertex="1" connectable="0">
          <mxGeometry x="-0.1824" y="-2" relative="1" as="geometry">
            <mxPoint x="-1" as="offset" />
          </mxGeometry>
        </mxCell>
        <mxCell id="cRKpLyfgJ0npYCoTxtSO-37" value="&lt;font style=&quot;font-size: 14px;&quot;&gt;&lt;b&gt;MessageQueue&lt;/b&gt;&lt;/font&gt;" style="strokeWidth=2;html=1;shape=mxgraph.flowchart.direct_data;whiteSpace=wrap;" parent="1" vertex="1">
          <mxGeometry x="980" y="-440" width="190" height="80" as="geometry" />
        </mxCell>
        <mxCell id="cRKpLyfgJ0npYCoTxtSO-45" value="&lt;div align=&quot;center&quot;&gt;Creazione &lt;b&gt;NOF_USERS&lt;/b&gt;&lt;br&gt;Ad ogni iterazione, &lt;i&gt;execve&lt;/i&gt;(./utente,&lt;/div&gt;" style="text;html=1;whiteSpace=wrap;overflow=hidden;rounded=0;align=center;" parent="1" vertex="1">
          <mxGeometry x="640" y="-290" width="180" height="70" as="geometry" />
        </mxCell>
        <mxCell id="cRKpLyfgJ0npYCoTxtSO-47" value="&lt;div align=&quot;left&quot;&gt;&lt;font style=&quot;font-size: 16px;&quot;&gt;- mtype [User pid]&lt;br&gt;&lt;/font&gt;&lt;/div&gt;&lt;div align=&quot;left&quot;&gt;&lt;font style=&quot;font-size: 16px;&quot;&gt;- ticket&lt;br&gt;&lt;/font&gt;&lt;/div&gt;" style="rounded=1;whiteSpace=wrap;html=1;align=left;dashed=1;" parent="1" vertex="1">
          <mxGeometry x="1470" y="-580" width="140" height="100" as="geometry" />
        </mxCell>
        <mxCell id="cRKpLyfgJ0npYCoTxtSO-48" value="&lt;b&gt;&lt;font style=&quot;font-size: 13px;&quot;&gt;TicketRequest&lt;/font&gt;&lt;/b&gt;" style="text;html=1;align=center;verticalAlign=middle;resizable=0;points=[];autosize=1;strokeColor=none;fillColor=none;" parent="1" vertex="1">
          <mxGeometry x="1485" y="-610" width="110" height="30" as="geometry" />
        </mxCell>
        <mxCell id="cRKpLyfgJ0npYCoTxtSO-64" style="edgeStyle=orthogonalEdgeStyle;rounded=0;orthogonalLoop=1;jettySize=auto;html=1;exitX=0.5;exitY=1;exitDx=0;exitDy=0;entryX=1;entryY=0.25;entryDx=0;entryDy=0;" parent="1" source="cRKpLyfgJ0npYCoTxtSO-51" target="aBqmL__dgE8RmT_emZI3-21" edge="1">
          <mxGeometry relative="1" as="geometry" />
        </mxCell>
        <mxCell id="cRKpLyfgJ0npYCoTxtSO-51" value="&lt;div align=&quot;left&quot;&gt;&lt;font style=&quot;font-size: 17px;&quot;&gt;- mtype [User pid]&lt;br&gt;&lt;/font&gt;&lt;/div&gt;&lt;div align=&quot;left&quot;&gt;&lt;font style=&quot;font-size: 17px;&quot;&gt;- ticket&lt;br&gt;(Se servizio active riceve ticket .available = true altrimenti false)&lt;br&gt;&lt;/font&gt;&lt;/div&gt;&lt;div&gt;&lt;font style=&quot;font-size: 17px;&quot;&gt;&lt;br&gt;&lt;/font&gt;&lt;/div&gt;&lt;div&gt;&lt;font style=&quot;font-size: 17px;&quot;&gt;&lt;br&gt;&lt;/font&gt;&lt;/div&gt;" style="rounded=1;whiteSpace=wrap;html=1;align=left;dashed=1;" parent="1" vertex="1">
          <mxGeometry x="1320" y="-350" width="190" height="150" as="geometry" />
        </mxCell>
        <mxCell id="cRKpLyfgJ0npYCoTxtSO-52" value="&lt;b&gt;&lt;font style=&quot;font-size: 13px;&quot;&gt;TicketResponse&lt;/font&gt;&lt;/b&gt;" style="text;html=1;align=center;verticalAlign=middle;resizable=0;points=[];autosize=1;strokeColor=none;fillColor=none;" parent="1" vertex="1">
          <mxGeometry x="1345" y="-380" width="120" height="30" as="geometry" />
        </mxCell>
        <mxCell id="cRKpLyfgJ0npYCoTxtSO-56" value="&lt;div align=&quot;left&quot;&gt;1 - generazione P_SERV in P_SERV_MIN, P_SERV_MAX]&lt;/div&gt;&lt;div align=&quot;left&quot;&gt;2 - Ciclare su lista di servizi e scegliere servizii dove i = random[0, servizi]&lt;/div&gt;&lt;div align=&quot;left&quot;&gt;3 - Sleep tra [0,tempo_da_definire(prima di chiususra ufficio postale]&lt;br&gt;4 - &lt;br&gt;&lt;/div&gt;" style="rounded=1;whiteSpace=wrap;html=1;align=left;" parent="1" vertex="1">
          <mxGeometry x="542.5" width="415" height="240" as="geometry" />
        </mxCell>
        <mxCell id="cRKpLyfgJ0npYCoTxtSO-60" style="edgeStyle=orthogonalEdgeStyle;rounded=0;orthogonalLoop=1;jettySize=auto;html=1;exitX=0;exitY=0.5;exitDx=0;exitDy=0;entryX=1;entryY=0.5;entryDx=0;entryDy=0;entryPerimeter=0;" parent="1" source="cRKpLyfgJ0npYCoTxtSO-47" target="cRKpLyfgJ0npYCoTxtSO-37" edge="1">
          <mxGeometry relative="1" as="geometry" />
        </mxCell>
        <mxCell id="cRKpLyfgJ0npYCoTxtSO-66" value="" style="endArrow=classic;html=1;rounded=0;entryX=0;entryY=0.5;entryDx=0;entryDy=0;" parent="1" edge="1">
          <mxGeometry width="50" height="50" relative="1" as="geometry">
            <mxPoint x="-240" y="-401.67" as="sourcePoint" />
            <mxPoint x="-110" y="-401.67" as="targetPoint" />
          </mxGeometry>
        </mxCell>
        <mxCell id="cRKpLyfgJ0npYCoTxtSO-68" value="&lt;b&gt;Il direttore &lt;br&gt;communica servizi available&lt;/b&gt;" style="edgeLabel;html=1;align=center;verticalAlign=middle;resizable=0;points=[];" parent="cRKpLyfgJ0npYCoTxtSO-66" vertex="1" connectable="0">
          <mxGeometry x="-0.4781" relative="1" as="geometry">
            <mxPoint x="-179" y="-9" as="offset" />
          </mxGeometry>
        </mxCell>
        <mxCell id="k8HhrDz8EL7ftPGTbXfE-1" value="&lt;font style=&quot;font-size: 14px;&quot;&gt;&lt;b&gt;Memoria Condivisa&lt;/b&gt;&lt;/font&gt;" style="text;html=1;align=center;verticalAlign=middle;resizable=0;points=[];autosize=1;strokeColor=none;fillColor=none;" parent="1" vertex="1">
          <mxGeometry x="40" y="-488" width="150" height="30" as="geometry" />
        </mxCell>
        <mxCell id="k8HhrDz8EL7ftPGTbXfE-3" value="&lt;div align=&quot;left&quot;&gt;&lt;br&gt;&lt;/div&gt;&lt;div align=&quot;left&quot;&gt;&lt;br&gt;&lt;/div&gt;&lt;div align=&quot;center&quot;&gt;Invio e ritiro pacchi - 10&lt;br&gt;Invio e ritiro lettere e raccomandate - 8&lt;br&gt;Prelievi e versamenti Bancoposta - 6&lt;br&gt;Pagamento bollettini postali - 8&lt;br&gt;Acquisto prodotti finanziari - 20&lt;br&gt;Acquisto orologi e braccialetti - 20 &lt;br&gt;&lt;/div&gt;" style="text;html=1;align=center;verticalAlign=middle;resizable=0;points=[];autosize=1;strokeColor=none;fillColor=none;" parent="1" vertex="1">
          <mxGeometry x="-165" y="-740" width="230" height="130" as="geometry" />
        </mxCell>
        <mxCell id="k8HhrDz8EL7ftPGTbXfE-23" value="&lt;div align=&quot;left&quot;&gt;&lt;font style=&quot;font-size: 16px;&quot;&gt;- servizio[string]&lt;/font&gt;&lt;/div&gt;&lt;div align=&quot;left&quot;&gt;&lt;font style=&quot;font-size: 16px;&quot;&gt;- tempario[int]&lt;br&gt;&lt;/font&gt;&lt;/div&gt;&lt;div align=&quot;left&quot;&gt;&lt;font style=&quot;font-size: 16px;&quot;&gt;- available[bool]&lt;br&gt;&lt;/font&gt;&lt;/div&gt;" style="whiteSpace=wrap;html=1;align=left;dashed=1;rounded=1;" parent="1" vertex="1">
          <mxGeometry x="-110" y="-568" width="120" height="100" as="geometry" />
        </mxCell>
        <mxCell id="k8HhrDz8EL7ftPGTbXfE-24" value="&lt;font style=&quot;font-size: 14px;&quot;&gt;&lt;b&gt;Ticket&lt;/b&gt;&lt;/font&gt;" style="text;html=1;align=center;verticalAlign=middle;resizable=0;points=[];autosize=1;strokeColor=none;fillColor=none;" parent="1" vertex="1">
          <mxGeometry x="-80" y="-600" width="60" height="30" as="geometry" />
        </mxCell>
        <mxCell id="k8HhrDz8EL7ftPGTbXfE-27" style="edgeStyle=orthogonalEdgeStyle;rounded=0;orthogonalLoop=1;jettySize=auto;html=1;exitX=1;exitY=0.5;exitDx=0;exitDy=0;" parent="1" source="k8HhrDz8EL7ftPGTbXfE-28" edge="1">
          <mxGeometry relative="1" as="geometry">
            <mxPoint x="245" y="960.2857142857147" as="targetPoint" />
          </mxGeometry>
        </mxCell>
        <mxCell id="k8HhrDz8EL7ftPGTbXfE-28" value="direttore" style="whiteSpace=wrap;html=1;aspect=fixed;" parent="1" vertex="1">
          <mxGeometry x="-5" y="920" width="80" height="80" as="geometry" />
        </mxCell>
        <mxCell id="k8HhrDz8EL7ftPGTbXfE-29" value="sportello" style="whiteSpace=wrap;html=1;aspect=fixed;" parent="1" vertex="1">
          <mxGeometry x="755" y="600" width="80" height="80" as="geometry" />
        </mxCell>
        <mxCell id="k8HhrDz8EL7ftPGTbXfE-30" value="operatore" style="whiteSpace=wrap;html=1;aspect=fixed;" parent="1" vertex="1">
          <mxGeometry x="755" y="920" width="80" height="80" as="geometry" />
        </mxCell>
        <mxCell id="k8HhrDz8EL7ftPGTbXfE-31" style="edgeStyle=orthogonalEdgeStyle;rounded=0;orthogonalLoop=1;jettySize=auto;html=1;exitX=1;exitY=0.5;exitDx=0;exitDy=0;" parent="1" source="k8HhrDz8EL7ftPGTbXfE-32" edge="1">
          <mxGeometry relative="1" as="geometry">
            <mxPoint x="-15" y="960" as="targetPoint" />
          </mxGeometry>
        </mxCell>
        <mxCell id="k8HhrDz8EL7ftPGTbXfE-32" value="&lt;div align=&quot;left&quot;&gt;1- Crea sim&lt;br&gt;&lt;/div&gt;&lt;div align=&quot;left&quot;&gt;2-Stats&lt;/div&gt;&lt;div align=&quot;left&quot;&gt;3- Genera px&lt;br&gt;&lt;/div&gt;" style="rounded=1;whiteSpace=wrap;html=1;" parent="1" vertex="1">
          <mxGeometry x="-305" y="930" width="210" height="60" as="geometry" />
        </mxCell>
        <mxCell id="k8HhrDz8EL7ftPGTbXfE-33" value="sportello" style="whiteSpace=wrap;html=1;aspect=fixed;" parent="1" vertex="1">
          <mxGeometry x="765" y="610" width="80" height="80" as="geometry" />
        </mxCell>
        <mxCell id="k8HhrDz8EL7ftPGTbXfE-34" value="sportello" style="whiteSpace=wrap;html=1;aspect=fixed;" parent="1" vertex="1">
          <mxGeometry x="775" y="620" width="80" height="80" as="geometry" />
        </mxCell>
        <mxCell id="k8HhrDz8EL7ftPGTbXfE-35" value="sportello" style="whiteSpace=wrap;html=1;aspect=fixed;" parent="1" vertex="1">
          <mxGeometry x="785" y="630" width="80" height="80" as="geometry" />
        </mxCell>
        <mxCell id="k8HhrDz8EL7ftPGTbXfE-36" value="operatore" style="whiteSpace=wrap;html=1;aspect=fixed;" parent="1" vertex="1">
          <mxGeometry x="765" y="930" width="80" height="80" as="geometry" />
        </mxCell>
        <mxCell id="k8HhrDz8EL7ftPGTbXfE-37" value="operatore" style="whiteSpace=wrap;html=1;aspect=fixed;" parent="1" vertex="1">
          <mxGeometry x="775" y="940" width="80" height="80" as="geometry" />
        </mxCell>
        <mxCell id="k8HhrDz8EL7ftPGTbXfE-38" value="operatore" style="whiteSpace=wrap;html=1;aspect=fixed;" parent="1" vertex="1">
          <mxGeometry x="785" y="950" width="80" height="80" as="geometry" />
        </mxCell>
        <mxCell id="k8HhrDz8EL7ftPGTbXfE-39" value="&lt;div&gt;&lt;b&gt;SIM_DURATION&lt;/b&gt;/giorni&lt;br&gt;&lt;/div&gt;&lt;div&gt;&lt;b&gt;NANO_SECONDS&lt;/b&gt; 1 ns = 1 min&lt;br&gt;&lt;/div&gt;" style="text;html=1;align=center;verticalAlign=middle;resizable=0;points=[];autosize=1;strokeColor=none;fillColor=none;" parent="1" vertex="1">
          <mxGeometry x="225" y="730" width="190" height="40" as="geometry" />
        </mxCell>
        <mxCell id="k8HhrDz8EL7ftPGTbXfE-40" value="" style="endArrow=baseDash;html=1;rounded=0;entryX=0;entryY=0.5;entryDx=0;entryDy=0;endFill=0;" parent="1" target="k8HhrDz8EL7ftPGTbXfE-29" edge="1">
          <mxGeometry width="50" height="50" relative="1" as="geometry">
            <mxPoint x="595" y="640" as="sourcePoint" />
            <mxPoint x="745" y="879" as="targetPoint" />
          </mxGeometry>
        </mxCell>
        <mxCell id="k8HhrDz8EL7ftPGTbXfE-41" value="&lt;b&gt;NOF_WORKERS_SEAT&lt;/b&gt;" style="edgeLabel;html=1;align=center;verticalAlign=middle;resizable=0;points=[];" parent="k8HhrDz8EL7ftPGTbXfE-40" vertex="1" connectable="0">
          <mxGeometry x="0.3314" y="-6" relative="1" as="geometry">
            <mxPoint x="-27" y="-5" as="offset" />
          </mxGeometry>
        </mxCell>
        <mxCell id="k8HhrDz8EL7ftPGTbXfE-42" value="" style="endArrow=baseDash;html=1;rounded=0;endFill=0;" parent="1" edge="1">
          <mxGeometry width="50" height="50" relative="1" as="geometry">
            <mxPoint x="595" y="970" as="sourcePoint" />
            <mxPoint x="755" y="970" as="targetPoint" />
          </mxGeometry>
        </mxCell>
        <mxCell id="k8HhrDz8EL7ftPGTbXfE-43" value="&lt;b&gt;NOF_WORKER&lt;/b&gt;" style="edgeLabel;html=1;align=center;verticalAlign=middle;resizable=0;points=[];" parent="k8HhrDz8EL7ftPGTbXfE-42" vertex="1" connectable="0">
          <mxGeometry x="-0.2346" y="1" relative="1" as="geometry">
            <mxPoint x="-1" as="offset" />
          </mxGeometry>
        </mxCell>
        <mxCell id="k8HhrDz8EL7ftPGTbXfE-44" value="&lt;div align=&quot;center&quot;&gt;Creazione &lt;b&gt;NOF_WORKERS_SEAT&lt;/b&gt;&lt;br&gt;Ad ogni iterazione, &lt;i&gt;execve&lt;/i&gt;(./sportello, argv[&lt;b&gt;Servizio&lt;/b&gt;]&lt;/div&gt;" style="text;html=1;whiteSpace=wrap;overflow=hidden;rounded=0;align=center;" parent="1" vertex="1">
          <mxGeometry x="725" y="510" width="180" height="70" as="geometry" />
        </mxCell>
        <mxCell id="k8HhrDz8EL7ftPGTbXfE-45" value="" style="group" parent="1" vertex="1" connectable="0">
          <mxGeometry x="1235" y="600" width="50" height="140" as="geometry" />
        </mxCell>
        <mxCell id="k8HhrDz8EL7ftPGTbXfE-46" value="" style="strokeWidth=2;html=1;shape=mxgraph.flowchart.terminator;whiteSpace=wrap;shadow=0;perimeterSpacing=0;gradientColor=none;fillColor=default;" parent="k8HhrDz8EL7ftPGTbXfE-45" vertex="1">
          <mxGeometry width="50" height="140" as="geometry" />
        </mxCell>
        <mxCell id="k8HhrDz8EL7ftPGTbXfE-47" value="" style="ellipse;whiteSpace=wrap;html=1;aspect=fixed;fillColor=#d5e8d4;gradientColor=#97d077;strokeColor=#82b366;" parent="k8HhrDz8EL7ftPGTbXfE-45" vertex="1">
          <mxGeometry x="15" y="40" width="20" height="20" as="geometry" />
        </mxCell>
        <mxCell id="k8HhrDz8EL7ftPGTbXfE-48" value="" style="ellipse;whiteSpace=wrap;html=1;aspect=fixed;fillColor=#f8cecc;strokeColor=#b85450;" parent="k8HhrDz8EL7ftPGTbXfE-45" vertex="1">
          <mxGeometry x="15" y="10" width="20" height="20" as="geometry" />
        </mxCell>
        <mxCell id="k8HhrDz8EL7ftPGTbXfE-49" value="" style="ellipse;whiteSpace=wrap;html=1;aspect=fixed;fillColor=#d5e8d4;gradientColor=#97d077;strokeColor=#82b366;" parent="k8HhrDz8EL7ftPGTbXfE-45" vertex="1">
          <mxGeometry x="15" y="70" width="20" height="20" as="geometry" />
        </mxCell>
        <mxCell id="k8HhrDz8EL7ftPGTbXfE-50" value="" style="ellipse;whiteSpace=wrap;html=1;aspect=fixed;fillColor=#d5e8d4;gradientColor=#97d077;strokeColor=#82b366;" parent="k8HhrDz8EL7ftPGTbXfE-45" vertex="1">
          <mxGeometry x="15" y="100" width="20" height="20" as="geometry" />
        </mxCell>
        <mxCell id="k8HhrDz8EL7ftPGTbXfE-51" value="" style="group" parent="1" vertex="1" connectable="0">
          <mxGeometry x="1030" y="600" width="50" height="140" as="geometry" />
        </mxCell>
        <mxCell id="k8HhrDz8EL7ftPGTbXfE-52" value="" style="strokeWidth=2;html=1;shape=mxgraph.flowchart.terminator;whiteSpace=wrap;shadow=0;perimeterSpacing=0;gradientColor=none;fillColor=default;" parent="k8HhrDz8EL7ftPGTbXfE-51" vertex="1">
          <mxGeometry width="50" height="140" as="geometry" />
        </mxCell>
        <mxCell id="k8HhrDz8EL7ftPGTbXfE-53" value="" style="ellipse;whiteSpace=wrap;html=1;aspect=fixed;fillColor=#d5e8d4;gradientColor=#97d077;strokeColor=#82b366;" parent="k8HhrDz8EL7ftPGTbXfE-51" vertex="1">
          <mxGeometry x="15" y="40" width="20" height="20" as="geometry" />
        </mxCell>
        <mxCell id="k8HhrDz8EL7ftPGTbXfE-54" value="" style="ellipse;whiteSpace=wrap;html=1;aspect=fixed;fillColor=#f8cecc;strokeColor=#b85450;" parent="k8HhrDz8EL7ftPGTbXfE-51" vertex="1">
          <mxGeometry x="15" y="10" width="20" height="20" as="geometry" />
        </mxCell>
        <mxCell id="k8HhrDz8EL7ftPGTbXfE-55" value="" style="ellipse;whiteSpace=wrap;html=1;aspect=fixed;fillColor=#d5e8d4;gradientColor=#97d077;strokeColor=#82b366;" parent="k8HhrDz8EL7ftPGTbXfE-51" vertex="1">
          <mxGeometry x="15" y="70" width="20" height="20" as="geometry" />
        </mxCell>
        <mxCell id="k8HhrDz8EL7ftPGTbXfE-56" value="" style="ellipse;whiteSpace=wrap;html=1;aspect=fixed;fillColor=#d5e8d4;gradientColor=#97d077;strokeColor=#82b366;" parent="k8HhrDz8EL7ftPGTbXfE-51" vertex="1">
          <mxGeometry x="15" y="100" width="20" height="20" as="geometry" />
        </mxCell>
        <mxCell id="k8HhrDz8EL7ftPGTbXfE-57" value="&lt;font style=&quot;font-size: 15px;&quot;&gt;&lt;b&gt;SIM_DURATION&lt;/b&gt; reached || users &amp;gt; &lt;b&gt;EXPLODE_THRESOLD&lt;font&gt;&lt;br&gt;&lt;/font&gt;&lt;/b&gt;&lt;/font&gt;" style="edgeLabel;html=1;align=center;verticalAlign=middle;resizable=0;points=[];" parent="1" vertex="1" connectable="0">
          <mxGeometry x="356" y="1060.8333333333335" as="geometry" />
        </mxCell>
        <mxCell id="k8HhrDz8EL7ftPGTbXfE-58" value="" style="html=1;dashed=0;whiteSpace=wrap;shape=mxgraph.dfd.loop" parent="1" vertex="1">
          <mxGeometry x="315" y="892.5" width="80" height="155" as="geometry" />
        </mxCell>
        <mxCell id="k8HhrDz8EL7ftPGTbXfE-59" value="&lt;font style=&quot;font-size: 16px;&quot;&gt;Workers Semaphore set&lt;/font&gt;" style="text;html=1;align=center;verticalAlign=middle;resizable=0;points=[];autosize=1;strokeColor=none;fillColor=none;" parent="1" vertex="1">
          <mxGeometry x="955" y="560" width="200" height="30" as="geometry" />
        </mxCell>
        <mxCell id="k8HhrDz8EL7ftPGTbXfE-60" value="&lt;font style=&quot;font-size: 16px;&quot;&gt;Users Semaphore set&lt;/font&gt;" style="text;html=1;align=center;verticalAlign=middle;resizable=0;points=[];autosize=1;strokeColor=none;fillColor=none;" parent="1" vertex="1">
          <mxGeometry x="1165" y="560" width="180" height="30" as="geometry" />
        </mxCell>
        <mxCell id="k8HhrDz8EL7ftPGTbXfE-61" value="&lt;div align=&quot;center&quot;&gt;Creazione &lt;b&gt;NOF_WORKER&lt;/b&gt;&lt;br&gt;Ad ogni iterazione, &lt;i&gt;execve&lt;/i&gt;(./operatore, argv[Mansione]&lt;/div&gt;" style="text;html=1;whiteSpace=wrap;overflow=hidden;rounded=0;align=center;" parent="1" vertex="1">
          <mxGeometry x="715" y="840" width="180" height="70" as="geometry" />
        </mxCell>
        <mxCell id="k8HhrDz8EL7ftPGTbXfE-63" style="edgeStyle=orthogonalEdgeStyle;rounded=0;orthogonalLoop=1;jettySize=auto;html=1;entryX=0.528;entryY=0;entryDx=0;entryDy=0;entryPerimeter=0;" parent="1" source="cRKpLyfgJ0npYCoTxtSO-37" target="cRKpLyfgJ0npYCoTxtSO-52" edge="1">
          <mxGeometry relative="1" as="geometry" />
        </mxCell>
        <mxCell id="k8HhrDz8EL7ftPGTbXfE-65" value="" style="group" parent="1" vertex="1" connectable="0">
          <mxGeometry x="210" y="-400" width="160" height="40" as="geometry" />
        </mxCell>
        <mxCell id="k8HhrDz8EL7ftPGTbXfE-5" value="" style="group" parent="k8HhrDz8EL7ftPGTbXfE-65" vertex="1" connectable="0">
          <mxGeometry width="160" height="40" as="geometry" />
        </mxCell>
        <mxCell id="k8HhrDz8EL7ftPGTbXfE-2" value="&lt;font style=&quot;font-size: 16px;&quot;&gt;servizio&lt;/font&gt;" style="rounded=0;whiteSpace=wrap;html=1;" parent="k8HhrDz8EL7ftPGTbXfE-5" vertex="1">
          <mxGeometry width="80" height="40" as="geometry" />
        </mxCell>
        <mxCell id="k8HhrDz8EL7ftPGTbXfE-4" value="&lt;font style=&quot;font-size: 16px;&quot;&gt;temp&lt;/font&gt;" style="rounded=0;whiteSpace=wrap;html=1;strokeColor=default;align=center;verticalAlign=middle;fontFamily=Helvetica;fontSize=12;fontColor=default;fillColor=default;" parent="k8HhrDz8EL7ftPGTbXfE-65" vertex="1">
          <mxGeometry x="80" width="40" height="40" as="geometry" />
        </mxCell>
        <mxCell id="k8HhrDz8EL7ftPGTbXfE-64" value="&lt;font style=&quot;font-size: 16px;&quot;&gt;av&lt;/font&gt;" style="rounded=0;whiteSpace=wrap;html=1;strokeColor=default;align=center;verticalAlign=middle;fontFamily=Helvetica;fontSize=12;fontColor=default;fillColor=default;" parent="k8HhrDz8EL7ftPGTbXfE-65" vertex="1">
          <mxGeometry x="120" width="40" height="40" as="geometry" />
        </mxCell>
        <mxCell id="k8HhrDz8EL7ftPGTbXfE-66" value="" style="group" parent="1" vertex="1" connectable="0">
          <mxGeometry x="50" y="-400" width="160" height="40" as="geometry" />
        </mxCell>
        <mxCell id="k8HhrDz8EL7ftPGTbXfE-67" value="" style="group" parent="k8HhrDz8EL7ftPGTbXfE-66" vertex="1" connectable="0">
          <mxGeometry width="160" height="40" as="geometry" />
        </mxCell>
        <mxCell id="k8HhrDz8EL7ftPGTbXfE-68" value="&lt;font style=&quot;font-size: 16px;&quot;&gt;servizio&lt;/font&gt;" style="rounded=0;whiteSpace=wrap;html=1;" parent="k8HhrDz8EL7ftPGTbXfE-67" vertex="1">
          <mxGeometry width="80" height="40" as="geometry" />
        </mxCell>
        <mxCell id="k8HhrDz8EL7ftPGTbXfE-69" value="&lt;font style=&quot;font-size: 16px;&quot;&gt;temp&lt;/font&gt;" style="rounded=0;whiteSpace=wrap;html=1;strokeColor=default;align=center;verticalAlign=middle;fontFamily=Helvetica;fontSize=12;fontColor=default;fillColor=default;" parent="k8HhrDz8EL7ftPGTbXfE-66" vertex="1">
          <mxGeometry x="80" width="40" height="40" as="geometry" />
        </mxCell>
        <mxCell id="k8HhrDz8EL7ftPGTbXfE-70" value="&lt;font style=&quot;font-size: 16px;&quot;&gt;av&lt;/font&gt;" style="rounded=0;whiteSpace=wrap;html=1;strokeColor=default;align=center;verticalAlign=middle;fontFamily=Helvetica;fontSize=12;fontColor=default;fillColor=default;" parent="k8HhrDz8EL7ftPGTbXfE-66" vertex="1">
          <mxGeometry x="120" width="40" height="40" as="geometry" />
        </mxCell>
        <mxCell id="k8HhrDz8EL7ftPGTbXfE-71" value="" style="group" parent="1" vertex="1" connectable="0">
          <mxGeometry x="-110" y="-400" width="160" height="40" as="geometry" />
        </mxCell>
        <mxCell id="k8HhrDz8EL7ftPGTbXfE-72" value="" style="group" parent="k8HhrDz8EL7ftPGTbXfE-71" vertex="1" connectable="0">
          <mxGeometry width="160" height="40" as="geometry" />
        </mxCell>
        <mxCell id="k8HhrDz8EL7ftPGTbXfE-73" value="&lt;font style=&quot;font-size: 16px;&quot;&gt;servizio&lt;/font&gt;" style="rounded=0;whiteSpace=wrap;html=1;" parent="k8HhrDz8EL7ftPGTbXfE-72" vertex="1">
          <mxGeometry width="80" height="40" as="geometry" />
        </mxCell>
        <mxCell id="k8HhrDz8EL7ftPGTbXfE-74" value="&lt;font style=&quot;font-size: 16px;&quot;&gt;temp&lt;/font&gt;" style="rounded=0;whiteSpace=wrap;html=1;strokeColor=default;align=center;verticalAlign=middle;fontFamily=Helvetica;fontSize=12;fontColor=default;fillColor=default;" parent="k8HhrDz8EL7ftPGTbXfE-71" vertex="1">
          <mxGeometry x="80" width="40" height="40" as="geometry" />
        </mxCell>
        <mxCell id="k8HhrDz8EL7ftPGTbXfE-75" value="&lt;font style=&quot;font-size: 16px;&quot;&gt;av&lt;/font&gt;" style="rounded=0;whiteSpace=wrap;html=1;strokeColor=default;align=center;verticalAlign=middle;fontFamily=Helvetica;fontSize=12;fontColor=default;fillColor=default;" parent="k8HhrDz8EL7ftPGTbXfE-71" vertex="1">
          <mxGeometry x="120" width="40" height="40" as="geometry" />
        </mxCell>
        <mxCell id="k8HhrDz8EL7ftPGTbXfE-76" value="" style="group" parent="1" vertex="1" connectable="0">
          <mxGeometry x="210" y="-440" width="160" height="40" as="geometry" />
        </mxCell>
        <mxCell id="k8HhrDz8EL7ftPGTbXfE-77" value="" style="group" parent="k8HhrDz8EL7ftPGTbXfE-76" vertex="1" connectable="0">
          <mxGeometry width="160" height="40" as="geometry" />
        </mxCell>
        <mxCell id="k8HhrDz8EL7ftPGTbXfE-78" value="&lt;font style=&quot;font-size: 16px;&quot;&gt;servizio&lt;/font&gt;" style="rounded=0;whiteSpace=wrap;html=1;" parent="k8HhrDz8EL7ftPGTbXfE-77" vertex="1">
          <mxGeometry width="80" height="40" as="geometry" />
        </mxCell>
        <mxCell id="k8HhrDz8EL7ftPGTbXfE-79" value="&lt;font style=&quot;font-size: 16px;&quot;&gt;temp&lt;/font&gt;" style="rounded=0;whiteSpace=wrap;html=1;strokeColor=default;align=center;verticalAlign=middle;fontFamily=Helvetica;fontSize=12;fontColor=default;fillColor=default;" parent="k8HhrDz8EL7ftPGTbXfE-76" vertex="1">
          <mxGeometry x="80" width="40" height="40" as="geometry" />
        </mxCell>
        <mxCell id="k8HhrDz8EL7ftPGTbXfE-81" value="" style="group" parent="1" vertex="1" connectable="0">
          <mxGeometry x="50" y="-440" width="160" height="40" as="geometry" />
        </mxCell>
        <mxCell id="k8HhrDz8EL7ftPGTbXfE-82" value="" style="group" parent="k8HhrDz8EL7ftPGTbXfE-81" vertex="1" connectable="0">
          <mxGeometry width="160" height="40" as="geometry" />
        </mxCell>
        <mxCell id="k8HhrDz8EL7ftPGTbXfE-83" value="&lt;font style=&quot;font-size: 16px;&quot;&gt;servizio&lt;/font&gt;" style="rounded=0;whiteSpace=wrap;html=1;" parent="k8HhrDz8EL7ftPGTbXfE-82" vertex="1">
          <mxGeometry width="80" height="40" as="geometry" />
        </mxCell>
        <mxCell id="k8HhrDz8EL7ftPGTbXfE-84" value="&lt;font style=&quot;font-size: 16px;&quot;&gt;temp&lt;/font&gt;" style="rounded=0;whiteSpace=wrap;html=1;strokeColor=default;align=center;verticalAlign=middle;fontFamily=Helvetica;fontSize=12;fontColor=default;fillColor=default;" parent="k8HhrDz8EL7ftPGTbXfE-81" vertex="1">
          <mxGeometry x="80" width="40" height="40" as="geometry" />
        </mxCell>
        <mxCell id="k8HhrDz8EL7ftPGTbXfE-85" value="&lt;font style=&quot;font-size: 16px;&quot;&gt;av&lt;/font&gt;" style="rounded=0;whiteSpace=wrap;html=1;strokeColor=default;align=center;verticalAlign=middle;fontFamily=Helvetica;fontSize=12;fontColor=default;fillColor=default;" parent="k8HhrDz8EL7ftPGTbXfE-81" vertex="1">
          <mxGeometry x="120" width="40" height="40" as="geometry" />
        </mxCell>
        <mxCell id="k8HhrDz8EL7ftPGTbXfE-86" value="" style="group" parent="1" vertex="1" connectable="0">
          <mxGeometry x="-110" y="-440" width="160" height="40" as="geometry" />
        </mxCell>
        <mxCell id="k8HhrDz8EL7ftPGTbXfE-87" value="" style="group" parent="k8HhrDz8EL7ftPGTbXfE-86" vertex="1" connectable="0">
          <mxGeometry width="160" height="40" as="geometry" />
        </mxCell>
        <mxCell id="k8HhrDz8EL7ftPGTbXfE-88" value="&lt;font style=&quot;font-size: 16px;&quot;&gt;servizio&lt;/font&gt;" style="rounded=0;whiteSpace=wrap;html=1;" parent="k8HhrDz8EL7ftPGTbXfE-87" vertex="1">
          <mxGeometry width="80" height="40" as="geometry" />
        </mxCell>
        <mxCell id="k8HhrDz8EL7ftPGTbXfE-89" value="&lt;font style=&quot;font-size: 16px;&quot;&gt;temp&lt;/font&gt;" style="rounded=0;whiteSpace=wrap;html=1;strokeColor=default;align=center;verticalAlign=middle;fontFamily=Helvetica;fontSize=12;fontColor=default;fillColor=default;" parent="k8HhrDz8EL7ftPGTbXfE-86" vertex="1">
          <mxGeometry x="80" width="40" height="40" as="geometry" />
        </mxCell>
        <mxCell id="k8HhrDz8EL7ftPGTbXfE-90" value="&lt;font style=&quot;font-size: 16px;&quot;&gt;av&lt;/font&gt;" style="rounded=0;whiteSpace=wrap;html=1;strokeColor=default;align=center;verticalAlign=middle;fontFamily=Helvetica;fontSize=12;fontColor=default;fillColor=default;" parent="k8HhrDz8EL7ftPGTbXfE-86" vertex="1">
          <mxGeometry x="120" width="40" height="40" as="geometry" />
        </mxCell>
        <mxCell id="k8HhrDz8EL7ftPGTbXfE-93" value="&lt;div align=&quot;center&quot;&gt;&lt;font style=&quot;font-size: 16px;&quot;&gt;Se ticket.available = true &lt;br&gt;&lt;/font&gt;&lt;/div&gt;&lt;div align=&quot;center&quot;&gt;&lt;font style=&quot;font-size: 16px;&quot;&gt;l&#39;utente si reca allo sportello&lt;/font&gt;&lt;br&gt;&lt;/div&gt;" style="text;html=1;align=center;verticalAlign=middle;resizable=0;points=[];autosize=1;strokeColor=none;fillColor=none;" parent="1" vertex="1">
          <mxGeometry x="1310" y="240" width="220" height="50" as="geometry" />
        </mxCell>
        <mxCell id="k8HhrDz8EL7ftPGTbXfE-99" value="" style="group" parent="1" vertex="1" connectable="0">
          <mxGeometry x="500" y="-468" width="50" height="140" as="geometry" />
        </mxCell>
        <mxCell id="k8HhrDz8EL7ftPGTbXfE-100" value="" style="strokeWidth=2;html=1;shape=mxgraph.flowchart.terminator;whiteSpace=wrap;shadow=0;perimeterSpacing=0;gradientColor=none;fillColor=default;" parent="k8HhrDz8EL7ftPGTbXfE-99" vertex="1">
          <mxGeometry width="50" height="140" as="geometry" />
        </mxCell>
        <mxCell id="k8HhrDz8EL7ftPGTbXfE-101" value="" style="ellipse;whiteSpace=wrap;html=1;aspect=fixed;fillColor=#d5e8d4;gradientColor=#97d077;strokeColor=#82b366;" parent="k8HhrDz8EL7ftPGTbXfE-99" vertex="1">
          <mxGeometry x="15" y="40" width="20" height="20" as="geometry" />
        </mxCell>
        <mxCell id="k8HhrDz8EL7ftPGTbXfE-102" value="" style="ellipse;whiteSpace=wrap;html=1;aspect=fixed;fillColor=#f8cecc;strokeColor=#b85450;" parent="k8HhrDz8EL7ftPGTbXfE-99" vertex="1">
          <mxGeometry x="15" y="10" width="20" height="20" as="geometry" />
        </mxCell>
        <mxCell id="k8HhrDz8EL7ftPGTbXfE-103" value="" style="ellipse;whiteSpace=wrap;html=1;aspect=fixed;fillColor=#d5e8d4;gradientColor=#97d077;strokeColor=#82b366;" parent="k8HhrDz8EL7ftPGTbXfE-99" vertex="1">
          <mxGeometry x="15" y="70" width="20" height="20" as="geometry" />
        </mxCell>
        <mxCell id="k8HhrDz8EL7ftPGTbXfE-104" value="" style="ellipse;whiteSpace=wrap;html=1;aspect=fixed;fillColor=#d5e8d4;gradientColor=#97d077;strokeColor=#82b366;" parent="k8HhrDz8EL7ftPGTbXfE-99" vertex="1">
          <mxGeometry x="15" y="100" width="20" height="20" as="geometry" />
        </mxCell>
        <mxCell id="k8HhrDz8EL7ftPGTbXfE-80" value="&lt;font style=&quot;font-size: 16px;&quot;&gt;av&lt;/font&gt;" style="rounded=0;whiteSpace=wrap;html=1;strokeColor=default;align=center;verticalAlign=middle;fontFamily=Helvetica;fontSize=12;fontColor=default;fillColor=default;" parent="1" vertex="1">
          <mxGeometry x="330" y="-440" width="40" height="40" as="geometry" />
        </mxCell>
        <mxCell id="MmHocowBiZpXC89f60pk-1" value="&lt;div align=&quot;center&quot;&gt;Creazione &lt;b&gt;erogatore&lt;/b&gt;&lt;br&gt;&lt;i&gt;execve&lt;/i&gt;(./erogatore, shmId, semId)&lt;br&gt;&lt;/div&gt;" style="text;html=1;whiteSpace=wrap;overflow=hidden;rounded=0;align=center;" parent="1" vertex="1">
          <mxGeometry x="630" y="-510" width="180" height="70" as="geometry" />
        </mxCell>
        <mxCell id="MmHocowBiZpXC89f60pk-2" value="Ogni volta che arriva la richiesta di un ticket l&#39;erogatore forka , ed il figlio si occupa di gestire la richiesta dell&#39;utente mentre il padre attende altra richiesta" style="whiteSpace=wrap;html=1;aspect=fixed;rounded=1;" parent="1" vertex="1">
          <mxGeometry x="1000" y="-603" width="145" height="145" as="geometry" />
        </mxCell>
        <mxCell id="MmHocowBiZpXC89f60pk-3" value="&lt;font style=&quot;font-size: 15px;&quot;&gt;fork&lt;/font&gt;" style="text;html=1;align=center;verticalAlign=middle;resizable=0;points=[];autosize=1;strokeColor=none;fillColor=none;" parent="1" vertex="1">
          <mxGeometry x="800" y="-430" width="50" height="30" as="geometry" />
        </mxCell>
        <mxCell id="t2EsB9IMeQbhhwJgvF6i-1" value="di" style="verticalLabelPosition=bottom;verticalAlign=top;html=1;shape=mxgraph.basic.polygon;polyCoords=[[0.25,0],[0.75,0],[1,0.25],[1,0.75],[0.75,1],[0.25,1],[0,0.75],[0,0.25]];polyline=0;" parent="1" vertex="1">
          <mxGeometry x="-730" y="-70" width="180" height="170" as="geometry" />
        </mxCell>
        <mxCell id="t2EsB9IMeQbhhwJgvF6i-2" value="&lt;div align=&quot;center&quot;&gt;&lt;font style=&quot;font-size: 16px;&quot;&gt;Dato che la execve ha degli effetti sui attributi del processo.&lt;br&gt;&lt;/font&gt;&lt;/div&gt;&lt;div align=&quot;center&quot;&gt;&lt;font style=&quot;font-size: 16px;&quot;&gt;Il direttore esegue delle fork per tutte le creazioni che deve fare&lt;/font&gt;&lt;/div&gt;&lt;div align=&quot;center&quot;&gt;&lt;font style=&quot;font-size: 16px;&quot;&gt;&amp;nbsp;(utente, erogatore, sportello, operatore) e saranno i child che si occuperanno di effettuare la execve&lt;/font&gt;&lt;/div&gt;&lt;div align=&quot;center&quot;&gt;&lt;font style=&quot;font-size: 16px;&quot;&gt;proteggendo il parent dagli side effects della execve&lt;/font&gt;&lt;/div&gt;" style="text;html=1;align=center;verticalAlign=middle;resizable=0;points=[];autosize=1;strokeColor=none;fillColor=none;" parent="1" vertex="1">
          <mxGeometry x="-990" y="-170" width="730" height="90" as="geometry" />
        </mxCell>
      </root>
    </mxGraphModel>
  </diagram>
</mxfile>
